<svg version="1.1" id="Layer_1" xmlns="http://www.w3.org/2000/svg" xmlns:xlink="http://www.w3.org/1999/xlink" x="0px" y="0px"
	 width="100%" viewBox="0 0 1024 1024" enable-background="new 0 0 1024 1024" xml:space="preserve">
<path fill="#000000" opacity="1.000000" stroke="none" 
	d="
M529.580933,755.541992 
	C523.332031,773.262817 520.447449,790.987915 523.020081,809.405884 
	C523.814026,815.090393 520.340088,820.118530 515.016846,821.681946 
	C509.718597,823.238037 504.780975,821.102417 501.972992,816.006409 
	C500.581726,813.481506 499.934601,810.695740 499.754486,807.877075 
	C498.099487,781.980347 502.348541,757.258545 513.365723,733.565125 
	C527.277649,703.646240 547.441589,678.414795 570.263855,655.039978 
	C596.537231,628.130615 615.175598,596.873657 623.963440,560.119568 
	C627.884216,543.721741 628.570129,527.194153 623.979431,510.735077 
	C623.507019,509.041443 623.600403,506.998291 620.818604,505.823853 
	C619.701111,509.946320 618.367249,513.919067 617.559387,517.996094 
	C610.503235,553.606018 594.004272,584.539001 571.369263,612.567749 
	C553.620239,634.546326 532.894958,653.656799 513.180359,673.738770 
	C489.877563,697.475830 471.550354,724.030945 464.942352,757.318420 
	C462.768005,768.271545 461.695129,779.367737 462.801239,790.577332 
	C463.526154,797.923828 460.128876,803.447510 454.086426,804.992249 
	C448.828583,806.336548 443.191437,803.025818 440.564087,796.399841 
	C434.584778,781.320618 432.223572,765.546204 433.268585,749.419922 
	C436.154327,704.887573 460.212463,672.454956 493.536774,645.558716 
	C508.047150,633.847229 523.785645,623.763184 537.795593,611.325928 
	C565.329956,586.882629 584.971558,557.676880 594.007202,521.749878 
	C595.834717,514.483154 596.721313,507.039459 596.697693,499.521759 
	C596.692749,497.943726 597.063782,496.198242 595.631348,495.014709 
	C593.136902,495.159058 593.137085,497.244904 592.524841,498.623718 
	C573.887329,540.597412 544.748047,573.180359 505.324158,596.699646 
	C482.945343,610.050293 461.613739,624.784180 443.672028,643.990601 
	C424.150970,664.887695 410.066681,688.572998 404.844757,717.043701 
	C402.754242,728.441528 403.080719,739.922180 403.317810,751.406677 
	C403.423096,756.505554 401.754211,760.610840 396.994415,762.917542 
	C392.007568,765.334290 387.779877,764.194092 383.344482,759.026917 
	C374.090393,748.246033 366.275879,736.397278 359.040253,724.234558 
	C339.641113,691.625549 325.168671,657.031555 319.307373,619.316467 
	C314.896149,590.932190 314.126801,562.327209 315.425842,533.638428 
	C316.899628,501.091400 322.050018,469.051208 330.907501,437.824371 
	C345.284546,387.138489 365.328247,338.934692 400.558441,298.664398 
	C428.661041,266.541382 463.154663,244.695831 506.140656,239.224335 
	C555.249512,232.973465 599.116882,244.765564 634.619812,280.917236 
	C648.382141,294.931030 656.262573,311.962097 657.263306,331.807495 
	C657.406555,334.647980 658.974243,335.868866 661.043030,337.124359 
	C674.430420,345.248749 687.821594,353.359650 700.915771,361.964996 
	C722.260254,375.992340 732.443542,395.617310 731.265015,421.098999 
	C731.084900,424.992432 730.850952,428.966736 729.163330,432.368042 
	C726.875000,432.683533 726.004944,431.259033 724.846863,430.380798 
	C705.194275,415.477539 683.162170,411.409729 659.636780,417.611084 
	C635.680359,423.926025 623.393066,448.066895 629.907043,473.945648 
	C633.515625,488.281586 641.425842,500.433960 649.472839,512.510742 
	C660.732666,529.409607 673.046082,545.648438 680.864319,564.644592 
	C697.901611,606.040649 697.172058,647.640198 682.732422,689.492310 
	C676.879211,706.457397 668.561584,722.161804 658.735291,737.110718 
	C657.642639,738.772888 656.408508,740.373474 655.048218,741.822571 
	C650.256531,746.927063 645.470276,747.521667 640.488342,743.755920 
	C635.336548,739.862000 633.971008,734.391541 637.674072,728.774109 
	C646.226807,715.799988 653.789429,702.330994 659.412903,687.838257 
	C667.575317,666.802307 671.765259,645.050964 670.625854,622.407532 
	C670.506775,620.040588 670.092834,617.769043 666.734253,616.700073 
	C664.826721,624.655518 662.784729,632.450012 660.362061,640.138428 
	C650.842529,670.350342 636.618286,698.270691 619.687866,724.905151 
	C605.256531,747.608032 592.789246,771.268433 584.154480,796.840820 
	C581.662476,804.221069 576.512268,807.550720 570.826172,805.888550 
	C564.711121,804.101013 561.564453,797.902161 563.455017,790.531250 
	C568.837585,769.545837 577.913025,750.139099 589.049438,731.640320 
	C605.453369,704.391785 622.404602,677.501770 633.815552,647.516846 
	C643.698669,621.546692 647.988708,594.936218 646.596497,567.296265 
	C646.574585,566.862915 646.390381,566.437805 645.974915,564.794434 
	C643.194519,578.450012 639.307190,590.521790 634.091370,602.201965 
	C624.561890,623.541992 611.462036,642.494446 596.521790,660.336365 
	C584.860535,674.262451 571.641235,686.774719 560.364136,701.056274 
	C547.339905,717.550476 537.075623,735.517639 529.580933,755.541992 
M619.777405,399.340759 
	C610.404846,394.895569 600.555847,391.780029 590.477295,389.536377 
	C574.261902,385.926605 560.045288,378.928223 548.869568,366.377472 
	C547.787598,365.162354 546.867981,363.802612 545.471924,361.988953 
	C541.227905,381.642487 531.272583,391.598724 516.098450,392.343903 
	C508.574860,392.713379 501.448822,391.416260 495.214294,386.988861 
	C485.259460,379.919525 482.061920,369.611572 482.431305,357.972382 
	C479.630066,357.948975 477.970337,359.186798 476.154816,359.933472 
	C469.154236,362.812469 461.986176,364.982269 454.318329,364.248871 
	C446.644623,363.514893 439.564392,361.468201 435.244263,354.205444 
	C432.780609,350.063690 433.238586,346.146118 436.303528,342.687256 
	C439.191467,339.428131 443.117889,338.708160 446.758575,340.913208 
	C455.263916,346.064789 462.874115,343.118958 470.173096,338.629608 
	C474.975555,335.675690 479.178406,331.765289 483.853394,328.582245 
	C499.799927,317.724823 516.637268,315.162231 534.346436,323.983185 
	C543.495972,328.540588 550.188965,336.094910 556.650085,343.734589 
	C565.868530,354.634491 575.898071,364.040283 590.867004,366.219635 
	C615.736023,369.840332 636.556030,350.513733 634.021179,327.590424 
	C632.551941,314.303345 626.515625,303.434509 617.299744,294.364258 
	C593.404480,270.846680 563.829773,260.536346 530.951538,259.556549 
	C505.961609,258.811859 482.473419,265.478241 460.711243,277.753540 
	C439.189178,289.893341 422.062164,306.990845 407.071075,326.389282 
	C397.191162,339.173828 389.179443,353.105774 381.256592,367.946655 
	C386.734924,366.060730 389.295990,361.692749 392.979889,358.768311 
	C396.537384,355.944153 400.121918,354.537964 404.345337,357.405579 
	C407.853638,359.787598 410.118500,365.184540 409.013947,369.262329 
	C408.259552,372.047516 406.625977,374.373535 404.560791,376.385132 
	C396.399170,384.334839 386.501984,389.405121 375.929962,393.172546 
	C371.729706,394.669312 367.884766,395.888519 366.580078,400.899414 
	C365.534821,404.913788 363.030212,408.515228 362.418640,413.774780 
	C371.881012,409.407043 380.502930,405.566803 387.865448,399.474762 
	C392.936066,395.279022 397.109955,394.528320 401.397980,397.427063 
	C408.024261,401.906403 407.991211,411.677124 401.172455,416.351135 
	C387.372131,425.810944 372.344971,432.885742 356.745941,438.810822 
	C355.394897,439.323975 353.678406,439.326385 353.194000,441.149628 
	C351.972900,445.745544 350.764374,450.344818 349.233246,456.145782 
	C357.494019,452.471985 364.527191,449.159332 371.704742,446.196411 
	C381.858429,442.004913 392.121216,438.078033 402.332489,434.025757 
	C410.080048,430.951141 416.314392,425.787659 422.192139,420.006165 
	C426.110107,416.152435 430.960724,415.605164 434.993256,418.056763 
	C439.301361,420.675903 441.045288,424.639282 440.280823,429.550690 
	C439.712097,433.204742 437.172180,435.768463 434.582855,438.136688 
	C421.799225,449.828888 408.996857,461.501099 396.142914,473.115936 
	C376.770477,490.620941 361.464294,511.143219 350.278992,534.727417 
	C338.729797,559.078918 337.789398,584.810364 340.728485,610.961853 
	C341.043701,613.766846 340.797638,616.902954 342.494232,619.798950 
	C343.015930,614.637512 343.392487,609.827942 344.015839,605.050537 
	C344.638550,600.278076 345.197083,595.462952 346.318512,590.795044 
	C356.162445,549.818970 377.691986,515.935974 408.937988,487.957642 
	C420.678986,477.444458 434.282501,469.606445 447.323822,460.970764 
	C452.723236,457.395386 458.826843,458.750885 462.328186,463.604523 
	C465.744934,468.340942 465.087494,474.864563 460.549988,479.016632 
	C458.723602,480.687866 456.581116,482.047882 454.468262,483.366516 
	C429.884155,498.709503 408.489868,517.457214 392.291718,541.715210 
	C378.882385,561.796631 369.487366,583.665771 366.594910,607.654846 
	C363.552155,632.890381 364.545441,658.171875 370.497589,683.057617 
	C372.708679,692.302002 375.541504,701.353394 379.629272,711.058350 
	C381.448364,701.667847 384.645477,693.296570 384.275513,685.086060 
	C383.773987,673.956848 383.298981,662.895386 383.540588,651.732117 
	C384.155701,623.308411 393.024902,597.860168 409.851501,575.102478 
	C414.606232,568.671814 419.731689,562.507446 425.547272,556.995422 
	C429.428955,553.316345 434.077026,552.536987 438.947601,554.851929 
	C443.486328,557.009155 445.520721,560.838806 445.228333,565.821472 
	C445.019562,569.378967 442.826355,571.932312 440.536652,574.398438 
	C424.529327,591.639526 413.963593,611.744568 408.865112,634.709412 
	C408.426819,636.683533 408.270111,638.720215 407.843018,641.702454 
	C413.022369,636.038147 417.313385,631.179565 421.780640,626.488770 
	C440.662201,606.662537 464.105133,593.235046 487.460846,579.653687 
	C517.139526,562.395508 542.292664,540.357178 560.693787,510.935242 
	C569.067444,497.546387 575.263794,483.340576 580.065979,468.410461 
	C580.531860,466.961975 581.223816,465.501190 579.818909,464.273468 
	C578.572021,463.183868 577.278015,464.156982 576.048950,464.515106 
	C571.724792,465.774963 568.862854,469.201660 565.412170,471.759277 
	C559.345154,476.256165 552.902222,480.022919 545.309570,481.221191 
	C542.094727,481.728577 539.197571,480.927551 538.100098,477.396149 
	C537.049805,474.016388 538.039246,471.066162 540.950195,469.049377 
	C542.282654,468.126221 543.935913,467.587494 545.515442,467.113739 
	C551.258667,465.391052 556.122742,462.164917 560.178223,457.920685 
	C566.495972,451.309021 572.711914,444.601685 578.022400,437.085083 
	C585.644104,426.297119 594.006836,416.188354 605.491394,409.129150 
	C610.824890,405.850769 616.795959,403.988434 622.909790,401.264130 
	C621.724915,400.483063 621.047668,400.036652 619.777405,399.340759 
M702.224487,396.760773 
	C703.499207,396.761536 704.721924,397.865784 706.403748,396.734741 
	C696.767822,372.226624 672.925720,363.822510 653.628418,349.247437 
	C648.150635,363.035004 638.624939,372.418121 626.277283,380.454193 
	C651.862244,386.972107 676.783813,391.280884 702.224487,396.760773 
M502.133789,345.719910 
	C503.276245,346.902069 504.858124,346.997559 506.301392,347.168274 
	C511.352356,347.765717 514.963684,350.208923 517.202332,354.827820 
	C518.664795,357.845245 520.959290,359.684265 524.448608,357.989075 
	C528.146484,356.192474 527.986389,353.175659 526.563538,349.915222 
	C522.944458,341.622284 510.959656,337.392365 502.521606,341.306671 
	C500.236023,342.366913 500.546021,343.593872 502.133789,345.719910 
M340.905518,501.782104 
	C340.880890,503.242371 339.592987,504.742950 341.112732,506.354919 
	C347.842133,494.141968 355.516327,482.738800 364.892914,472.494659 
	C362.319092,473.288940 360.149323,474.593048 357.802338,475.341675 
	C347.882111,478.505829 340.974854,483.952728 341.500519,495.537994 
	C341.582428,497.343719 341.194061,499.170746 340.905518,501.782104 
z"/>
<path fill="#000000" opacity="1.000000" stroke="none" 
	d="
M661.919434,380.319885 
	C658.849854,379.364349 656.137329,378.606598 653.505676,377.630646 
	C649.856873,376.277466 649.012878,373.240356 649.894470,369.930481 
	C650.797668,366.539734 653.564453,365.272461 656.890625,366.067444 
	C660.096008,366.833618 663.283203,367.829193 666.322144,369.098114 
	C669.862915,370.576569 672.200195,373.309967 670.835876,377.315155 
	C669.422546,381.464569 666.095093,381.949890 661.919434,380.319885 
z"/>
</svg>