<svg xmlns="http://www.w3.org/2000/svg" xml:space="preserve" viewBox="0 0 1024 1024">
  <path d="M529.58 755.542c-6.248 17.72-9.133 35.446-6.56 53.864.794 5.684-2.68 10.713-8.003 12.276-5.298 1.556-10.236-.58-13.044-5.676-1.391-2.524-2.038-5.31-2.219-8.129-1.655-25.897 2.595-50.618 13.612-74.312 13.912-29.919 34.076-55.15 56.898-78.525 26.273-26.91 44.912-58.166 53.7-94.92 3.92-16.398 4.606-32.926.015-49.385-.472-1.694-.379-3.737-3.16-4.911-1.118 4.122-2.452 8.095-3.26 12.172-7.056 35.61-23.555 66.543-46.19 94.572-17.749 21.978-38.474 41.089-58.189 61.17-23.302 23.738-41.63 50.293-48.238 83.58-2.174 10.954-3.247 22.05-2.14 33.26.724 7.346-2.673 12.87-8.716 14.414-5.257 1.345-10.895-1.966-13.522-8.592-5.98-15.08-8.34-30.854-7.295-46.98 2.885-44.532 26.943-76.965 60.268-103.861 14.51-11.712 30.249-21.796 44.259-34.233 27.534-24.443 47.176-53.65 56.211-89.576 1.828-7.267 2.714-14.71 2.69-22.228-.004-1.578.367-3.324-1.066-4.507-2.494.144-2.494 2.23-3.106 3.609-18.638 41.973-47.777 74.556-87.2 98.076-22.38 13.35-43.711 28.084-61.653 47.29-19.521 20.898-33.605 44.583-38.827 73.054-2.09 11.398-1.764 22.878-1.527 34.363.105 5.099-1.564 9.204-6.324 11.51-4.986 2.417-9.214 1.277-13.65-3.89-9.254-10.781-17.068-22.63-24.304-34.792-19.399-32.61-33.871-67.203-39.733-104.919-4.41-28.384-5.18-56.989-3.881-85.678 1.474-32.547 6.624-64.587 15.482-95.814 14.377-50.686 34.42-98.89 69.65-139.16 28.103-32.123 62.597-53.968 105.583-59.44 49.109-6.25 92.976 5.542 128.479 41.693 13.762 14.014 21.643 31.045 22.643 50.89.144 2.841 1.711 4.062 3.78 5.317 13.387 8.125 26.779 16.236 39.873 24.841 21.344 14.027 31.528 33.652 30.349 59.134-.18 3.893-.414 7.868-2.102 11.269-2.288.316-3.158-1.109-4.316-1.987-19.653-14.903-41.685-18.971-65.21-12.77-23.957 6.315-36.244 30.456-29.73 56.335 3.609 14.336 11.519 26.488 19.566 38.565 11.26 16.899 23.573 33.137 31.391 52.134 17.038 41.396 16.308 82.995 1.868 124.847-5.853 16.965-14.17 32.67-23.997 47.619a34.944 34.944 0 0 1-3.687 4.712c-4.791 5.104-9.578 5.699-14.56 1.933-5.151-3.894-6.517-9.364-2.814-14.982 8.553-12.974 16.115-26.443 21.739-40.936 8.162-21.036 12.352-42.787 11.213-65.43-.12-2.367-.533-4.639-3.892-5.708-1.907 7.956-3.95 15.75-6.372 23.438-9.52 30.212-23.744 58.133-40.674 84.767-14.431 22.703-26.899 46.363-35.534 71.936-2.492 7.38-7.642 10.71-13.328 9.048-6.115-1.788-9.262-7.987-7.371-15.358 5.383-20.985 14.458-40.392 25.594-58.89 16.404-27.25 33.356-54.14 44.767-84.124 9.883-25.97 14.173-52.58 12.78-80.22-.021-.434-.206-.86-.621-2.503-2.78 13.656-6.668 25.728-11.884 37.408-9.53 21.34-22.629 40.292-37.57 58.134-11.66 13.926-24.88 26.439-36.157 40.72-13.024 16.494-23.288 34.462-30.783 54.486m90.196-356.201c-9.372-4.445-19.221-7.561-29.3-9.805-16.215-3.61-30.432-10.608-41.607-23.159-1.082-1.215-2.002-2.574-3.398-4.388-4.244 19.653-14.2 29.61-29.374 30.355-7.523.37-14.65-.928-20.884-5.355-9.955-7.07-13.152-17.377-12.783-29.017-2.8-.023-4.46 1.215-6.276 1.961-7 2.88-14.169 5.05-21.837 4.316-7.673-.734-14.754-2.78-19.074-10.044-2.463-4.141-2.005-8.059 1.06-11.518 2.887-3.259 6.814-3.979 10.455-1.774 8.505 5.152 16.115 2.206 23.414-2.283 4.803-2.954 9.005-6.865 13.68-10.048 15.947-10.857 32.784-13.42 50.493-4.599 9.15 4.558 15.843 12.112 22.304 19.752 9.219 10.9 19.248 20.305 34.217 22.485 24.869 3.62 45.689-15.706 43.154-38.63-1.47-13.287-7.505-24.155-16.721-33.226-23.896-23.517-53.47-33.828-86.348-34.807-24.99-.745-48.479 5.921-70.24 18.197-21.523 12.14-38.65 29.237-53.64 48.635-9.88 12.785-17.893 26.717-25.815 41.558 5.478-1.886 8.039-6.254 11.723-9.179 3.557-2.824 7.142-4.23 11.365-1.362 3.509 2.382 5.773 7.779 4.669 11.856-.754 2.786-2.388 5.112-4.453 7.123-8.162 7.95-18.059 13.02-28.631 16.788-4.2 1.496-8.045 2.716-9.35 7.726-1.045 4.015-3.55 7.616-4.161 12.876 9.462-4.368 18.084-8.208 25.446-14.3 5.071-4.196 9.245-4.947 13.533-2.048 6.626 4.48 6.593 14.25-.226 18.924-13.8 9.46-28.827 16.535-44.426 22.46-1.351.513-3.068.515-3.552 2.339-1.221 4.596-2.43 9.195-3.96 14.996 8.26-3.674 15.293-6.987 22.47-9.95 10.154-4.191 20.417-8.118 30.628-12.17 7.748-3.075 13.982-8.238 19.86-14.02 3.918-3.854 8.769-4.4 12.801-1.95 4.308 2.62 6.052 6.583 5.288 11.495-.569 3.654-3.109 6.217-5.698 8.586a8612.784 8612.784 0 0 1-38.44 34.979c-19.373 17.505-34.679 38.027-45.864 61.611-11.55 24.352-12.49 50.083-9.55 76.235.315 2.805.069 5.941 1.765 8.837.522-5.161.898-9.971 1.522-14.748.623-4.773 1.181-9.588 2.303-14.256 9.843-40.976 31.373-74.859 62.619-102.837 11.741-10.514 25.345-18.352 38.386-26.987 5.4-3.576 11.503-2.22 15.004 2.634 3.417 4.736 2.76 11.26-1.778 15.412-1.826 1.67-3.969 3.03-6.082 4.35-24.584 15.343-45.978 34.09-62.176 58.348-13.41 20.082-22.805 41.95-25.697 65.94-3.043 25.235-2.05 50.517 3.903 75.403 2.21 9.244 5.044 18.295 9.131 28 1.82-9.39 5.016-17.761 4.647-25.972-.502-11.13-.977-22.19-.735-33.354.615-28.424 9.484-53.872 26.31-76.63 4.755-6.43 9.88-12.595 15.696-18.107 3.882-3.679 8.53-4.458 13.4-2.143 4.54 2.157 6.574 5.987 6.281 10.97-.208 3.557-2.402 6.11-4.691 8.576-16.008 17.242-26.573 37.347-31.672 60.311-.438 1.975-.595 4.011-1.022 6.993 5.18-5.664 9.47-10.522 13.938-15.213 18.881-19.826 42.324-33.254 65.68-46.835 29.679-17.258 54.832-39.297 73.233-68.719 8.373-13.389 14.57-27.594 19.372-42.525.466-1.448 1.158-2.909-.247-4.137-1.247-1.09-2.541-.116-3.77.242-4.324 1.26-7.186 4.687-10.637 7.244-6.067 4.497-12.51 8.264-20.102 9.462-3.215.508-6.112-.293-7.21-3.825-1.05-3.38-.06-6.33 2.85-8.347 1.333-.923 2.986-1.462 4.565-1.935 5.744-1.723 10.608-4.95 14.663-9.193 6.318-6.612 12.534-13.32 17.844-20.836 7.622-10.788 15.985-20.897 27.47-27.956 5.333-3.278 11.304-5.14 17.418-7.865-1.185-.78-1.862-1.227-3.133-1.923m82.447-2.58c1.275 0 2.498 1.105 4.18-.026-9.636-24.508-33.478-32.912-52.776-47.488-5.477 13.788-15.003 23.171-27.35 31.207 25.584 6.518 50.506 10.827 75.946 16.307m-200.09-51.041c1.142 1.182 2.724 1.278 4.167 1.448 5.051.598 8.663 3.04 10.901 7.66 1.463 3.017 3.757 4.856 7.247 3.161 3.697-1.797 3.537-4.813 2.115-8.074-3.62-8.293-15.604-12.523-24.042-8.608-2.286 1.06-1.976 2.287-.388 4.413M340.906 501.782c-.025 1.46-1.313 2.961.207 4.573 6.73-12.213 14.403-23.616 23.78-33.86-2.574.794-4.744 2.098-7.09 2.847-9.92 3.164-16.828 8.61-16.302 20.196.081 1.806-.307 3.633-.595 6.244z"/>
  <path d="M661.92 380.32c-3.07-.956-5.783-1.713-8.414-2.69-3.65-1.353-4.493-4.39-3.612-7.7.904-3.39 3.67-4.658 6.997-3.863 3.205.767 6.392 1.762 9.431 3.031 3.54 1.479 5.878 4.212 4.514 8.217-1.413 4.15-4.74 4.635-8.917 3.005z"/>
</svg>
